<?xml version="1.0" encoding="UTF-8" standalone="no"?>
<!-- Created with Inkscape (http://www.inkscape.org/) -->

<svg
   xmlns:dc="http://purl.org/dc/elements/1.1/"
   xmlns:cc="http://creativecommons.org/ns#"
   xmlns:rdf="http://www.w3.org/1999/02/22-rdf-syntax-ns#"
   xmlns:svg="http://www.w3.org/2000/svg"
   xmlns="http://www.w3.org/2000/svg"
   xmlns:sodipodi="http://sodipodi.sourceforge.net/DTD/sodipodi-0.dtd"
   xmlns:inkscape="http://www.inkscape.org/namespaces/inkscape"
   version="1.1"
   id="svg55508"
   xml:space="preserve"
   width="800"
   height="800"
   viewBox="0 0 800 800"
   sodipodi:docname="house-winter-landscape-publicdomainvectors.org.svg"
   inkscape:version="0.92.4 (5da689c313, 2019-01-14)"><metadata
     id="metadata55514"><rdf:RDF><cc:Work
         rdf:about=""><dc:format>image/svg+xml</dc:format><dc:type
           rdf:resource="http://purl.org/dc/dcmitype/StillImage" /><dc:title></dc:title></cc:Work></rdf:RDF></metadata><defs
     id="defs55512"><clipPath
       clipPathUnits="userSpaceOnUse"
       id="clipPath55524"><path
         d="M 0,600 H 600 V 0 H 0 Z"
         id="path55522"
         inkscape:connector-curvature="0" /></clipPath></defs><sodipodi:namedview
     pagecolor="#ffffff"
     bordercolor="#666666"
     borderopacity="1"
     objecttolerance="10"
     gridtolerance="10"
     guidetolerance="10"
     inkscape:pageopacity="0"
     inkscape:pageshadow="2"
     inkscape:window-width="1920"
     inkscape:window-height="1018"
     id="namedview55510"
     showgrid="false"
     inkscape:zoom="1.0013867"
     inkscape:cx="400"
     inkscape:cy="400"
     inkscape:window-x="-8"
     inkscape:window-y="-8"
     inkscape:window-maximized="1"
     inkscape:current-layer="g55516" /><g
     id="g55516"
     inkscape:groupmode="layer"
     inkscape:label="house-winter-landscape-publicdomainvectors.org"
     transform="matrix(1.3333333,0,0,-1.3333333,0,800)"><g
       id="g55518"><g
         id="g55520"
         clip-path="url(#clipPath55524)"><path
           d="M -1.133,0 H 601.161 V 598.914 H -1.133 Z"
           style="fill:#c2e5ff;fill-opacity:1;fill-rule:evenodd;stroke:none"
           id="path55526"
           inkscape:connector-curvature="0" /><path
           d="m 39.335,185.834 h 521.357 c 7.529,0 13.689,-6.127 13.689,-13.612 V 158.608 H 25.647 v 13.614 c 0,7.485 6.159,13.612 13.688,13.612"
           style="fill:#ffffff;fill-opacity:1;fill-rule:evenodd;stroke:none"
           id="path55528"
           inkscape:connector-curvature="0" /><path
           d="m 97.853,185.832 h 247.586 v 71.612 H 97.853 Z"
           style="fill:#6b8ed6;fill-opacity:1;fill-rule:evenodd;stroke:none"
           id="path55530"
           inkscape:connector-curvature="0" /><path
           d="m 246.049,185.834 h 99.391 v 71.61 h -99.391 z"
           style="fill:#5376bd;fill-opacity:1;fill-rule:evenodd;stroke:none"
           id="path55532"
           inkscape:connector-curvature="0" /><path
           d="m 153.797,185.834 h 32.14 v 37.878 c 0,8.789 -7.23,15.977 -16.069,15.977 -8.839,0 -16.071,-7.188 -16.071,-15.977 z"
           style="fill:#4366ad;fill-opacity:1;fill-rule:evenodd;stroke:none"
           id="path55534"
           inkscape:connector-curvature="0" /><path
           d="m 156.476,185.834 h 29.461 v 37.878 c 0,8.34 -6.513,15.24 -14.73,15.922 -8.217,-0.682 -14.731,-7.582 -14.731,-15.922 z"
           style="fill:#000000;fill-opacity:1;fill-rule:evenodd;stroke:none"
           id="path55536"
           inkscape:connector-curvature="0" /><path
           d="m 92.794,257.444 h 257.705 v 8.878 H 92.794 Z"
           style="fill:#1d376b;fill-opacity:1;fill-rule:evenodd;stroke:none"
           id="path55538"
           inkscape:connector-curvature="0" /><path
           d="m 97.853,252.563 h 148.194 v 4.881 H 97.853 Z"
           style="fill:#5376bd;fill-opacity:1;fill-rule:evenodd;stroke:none"
           id="path55540"
           inkscape:connector-curvature="0" /><path
           d="m 97.853,266.322 h 247.586 v 71.612 H 97.853 Z"
           style="fill:#6b8ed6;fill-opacity:1;fill-rule:evenodd;stroke:none"
           id="path55542"
           inkscape:connector-curvature="0" /><path
           d="m 246.049,266.322 h 99.391 v 71.612 h -99.391 z"
           style="fill:#5376bd;fill-opacity:1;fill-rule:evenodd;stroke:none"
           id="path55544"
           inkscape:connector-curvature="0" /><path
           d="m 248.131,337.935 32.212,54.668 75.663,-54.668 z"
           style="fill:#e6e6e6;fill-opacity:1;fill-rule:evenodd;stroke:none"
           id="path55546"
           inkscape:connector-curvature="0" /><path
           d="m 87.286,337.935 71.297,54.668 h 121.76 l -32.212,-54.668 z"
           style="fill:#ffffff;fill-opacity:1;fill-rule:evenodd;stroke:none"
           id="path55548"
           inkscape:connector-curvature="0" /><path
           d="m 97.853,333.052 h 148.194 v 4.883 H 97.853 Z"
           style="fill:#5376bd;fill-opacity:1;fill-rule:evenodd;stroke:none"
           id="path55550"
           inkscape:connector-curvature="0" /><path
           d="m 92.794,261.436 h 257.705 v 4.887 H 92.794 Z"
           style="fill:#ffffff;fill-opacity:1;fill-rule:evenodd;stroke:none"
           id="path55552"
           inkscape:connector-curvature="0" /><path
           d="m 246.049,252.563 h 99.391 v 4.881 h -99.391 z"
           style="fill:#4366ad;fill-opacity:1;fill-rule:evenodd;stroke:none"
           id="path55554"
           inkscape:connector-curvature="0" /><path
           d="m 246.049,333.052 h 99.391 v 4.883 h -99.391 z"
           style="fill:#4366ad;fill-opacity:1;fill-rule:evenodd;stroke:none"
           id="path55556"
           inkscape:connector-curvature="0" /><path
           d="m 106.286,281.245 h 33.33 v 40.688 h -33.33 z"
           style="fill:#adebfa;fill-opacity:1;fill-rule:evenodd;stroke:none"
           id="path55558"
           inkscape:connector-curvature="0" /><path
           d="m 139.616,320.96 -17.381,-39.716 h 4.39 l 12.991,29.686 z m -10.881,0.973 h 8.778 l -17.806,-40.689 h -8.778 z"
           style="fill:#e5faff;fill-opacity:1;fill-rule:evenodd;stroke:none"
           id="path55560"
           inkscape:connector-curvature="0" /><path
           d="m 106.286,281.245 h 3.423 v 40.688 h -3.423 z"
           style="fill:#4366ad;fill-opacity:1;fill-rule:evenodd;stroke:none"
           id="path55562"
           inkscape:connector-curvature="0" /><path
           d="m 197.825,281.245 h 33.328 v 40.688 h -33.328 z"
           style="fill:#adebfa;fill-opacity:1;fill-rule:evenodd;stroke:none"
           id="path55564"
           inkscape:connector-curvature="0" /><path
           d="m 231.153,320.96 -17.379,-39.716 h 4.391 l 12.988,29.686 z m -10.881,0.973 h 8.778 l -17.806,-40.689 h -8.778 z"
           style="fill:#e5faff;fill-opacity:1;fill-rule:evenodd;stroke:none"
           id="path55566"
           inkscape:connector-curvature="0" /><path
           d="m 197.823,281.245 h 3.423 v 40.688 h -3.423 z"
           style="fill:#4366ad;fill-opacity:1;fill-rule:evenodd;stroke:none"
           id="path55568"
           inkscape:connector-curvature="0" /><path
           d="m 197.825,204.107 h 33.328 v 40.688 h -33.328 z"
           style="fill:#adebfa;fill-opacity:1;fill-rule:evenodd;stroke:none"
           id="path55570"
           inkscape:connector-curvature="0" /><path
           d="m 231.153,243.82 -17.379,-39.713 h 4.391 l 12.988,29.685 z m -10.881,0.975 h 8.778 l -17.806,-40.688 h -8.778 z"
           style="fill:#e5faff;fill-opacity:1;fill-rule:evenodd;stroke:none"
           id="path55572"
           inkscape:connector-curvature="0" /><path
           d="m 197.823,204.107 h 3.423 v 40.688 h -3.423 z"
           style="fill:#4366ad;fill-opacity:1;fill-rule:evenodd;stroke:none"
           id="path55574"
           inkscape:connector-curvature="0" /><path
           d="m 106.286,204.107 h 33.33 v 40.688 h -33.33 z"
           style="fill:#adebfa;fill-opacity:1;fill-rule:evenodd;stroke:none"
           id="path55576"
           inkscape:connector-curvature="0" /><path
           d="m 139.616,243.82 -17.381,-39.713 h 4.39 l 12.991,29.685 z m -10.881,0.975 h 8.778 l -17.806,-40.688 h -8.778 z"
           style="fill:#e5faff;fill-opacity:1;fill-rule:evenodd;stroke:none"
           id="path55578"
           inkscape:connector-curvature="0" /><path
           d="m 106.286,204.107 h 3.423 v 40.688 h -3.423 z"
           style="fill:#4366ad;fill-opacity:1;fill-rule:evenodd;stroke:none"
           id="path55580"
           inkscape:connector-curvature="0" /><path
           d="m 152.419,281.245 h 33.33 v 40.688 h -33.33 z"
           style="fill:#adebfa;fill-opacity:1;fill-rule:evenodd;stroke:none"
           id="path55582"
           inkscape:connector-curvature="0" /><path
           d="m 185.749,320.96 -17.381,-39.716 h 4.389 l 12.992,29.686 z m -10.881,0.973 h 8.778 L 165.84,281.244 h -8.778 z"
           style="fill:#e5faff;fill-opacity:1;fill-rule:evenodd;stroke:none"
           id="path55584"
           inkscape:connector-curvature="0" /><path
           d="m 152.419,281.245 h 3.421 v 40.688 h -3.421 z"
           style="fill:#4366ad;fill-opacity:1;fill-rule:evenodd;stroke:none"
           id="path55586"
           inkscape:connector-curvature="0" /><path
           d="m 282.661,281.245 h 33.327 v 40.688 h -33.327 z"
           style="fill:#99e0f2;fill-opacity:1;fill-rule:evenodd;stroke:none"
           id="path55588"
           inkscape:connector-curvature="0" /><path
           d="m 312.566,320.96 -17.379,-39.716 h 4.389 l 12.99,29.686 z m -10.881,0.973 h 8.778 l -17.806,-40.689 h -8.779 z"
           style="fill:#d4f6ff;fill-opacity:1;fill-rule:evenodd;stroke:none"
           id="path55590"
           inkscape:connector-curvature="0" /><path
           d="m 312.566,281.245 h 3.421 v 40.688 h -3.421 z"
           style="fill:#36589c;fill-opacity:1;fill-rule:evenodd;stroke:none"
           id="path55592"
           inkscape:connector-curvature="0" /><path
           d="m 282.661,204.107 h 33.327 v 40.688 h -33.327 z"
           style="fill:#99e0f2;fill-opacity:1;fill-rule:evenodd;stroke:none"
           id="path55594"
           inkscape:connector-curvature="0" /><path
           d="m 312.566,243.82 -17.379,-39.713 h 4.389 l 12.99,29.685 z m -10.881,0.975 h 8.778 l -17.806,-40.688 h -8.779 z"
           style="fill:#d4f6ff;fill-opacity:1;fill-rule:evenodd;stroke:none"
           id="path55596"
           inkscape:connector-curvature="0" /><path
           d="m 312.566,204.107 h 3.421 v 40.688 h -3.421 z"
           style="fill:#36589c;fill-opacity:1;fill-rule:evenodd;stroke:none"
           id="path55598"
           inkscape:connector-curvature="0" /><path
           d="m 101.08,277.991 h 40.322 v 3.253 H 101.08 Z"
           style="fill:#ffffff;fill-opacity:1;fill-rule:evenodd;stroke:none"
           id="path55600"
           inkscape:connector-curvature="0" /><path
           d="m 147.366,277.991 h 40.323 v 3.253 h -40.323 z"
           style="fill:#ffffff;fill-opacity:1;fill-rule:evenodd;stroke:none"
           id="path55602"
           inkscape:connector-curvature="0" /><path
           d="m 192.563,277.991 h 40.321 v 3.253 h -40.321 z"
           style="fill:#ffffff;fill-opacity:1;fill-rule:evenodd;stroke:none"
           id="path55604"
           inkscape:connector-curvature="0" /><path
           d="m 101.158,200.852 h 40.322 v 3.256 h -40.322 z"
           style="fill:#ffffff;fill-opacity:1;fill-rule:evenodd;stroke:none"
           id="path55606"
           inkscape:connector-curvature="0" /><path
           d="m 192.924,200.852 h 40.322 v 3.256 h -40.322 z"
           style="fill:#ffffff;fill-opacity:1;fill-rule:evenodd;stroke:none"
           id="path55608"
           inkscape:connector-curvature="0" /><path
           d="m 280.111,277.991 h 40.323 v 3.253 h -40.323 z"
           style="fill:#e6e6e6;fill-opacity:1;fill-rule:evenodd;stroke:none"
           id="path55610"
           inkscape:connector-curvature="0" /><path
           d="m 280.097,200.852 h 40.322 v 3.256 h -40.322 z"
           style="fill:#e6e6e6;fill-opacity:1;fill-rule:evenodd;stroke:none"
           id="path55612"
           inkscape:connector-curvature="0" /><path
           d="m 514.47,250.764 h -63.119 l 8.156,38.296 3.451,2.753 z"
           style="fill:#cccccc;fill-opacity:1;fill-rule:evenodd;stroke:none"
           id="path55614"
           inkscape:connector-curvature="0" /><path
           d="m 331.351,185.832 h 167.834 v 71.612 H 331.351 Z"
           style="fill:#e68f33;fill-opacity:1;fill-rule:evenodd;stroke:none"
           id="path55616"
           inkscape:connector-curvature="0" /><path
           d="m 415.267,257.444 41.958,33.435 41.96,-33.435 v -71.61 h -83.918 z"
           style="fill:#cf720f;fill-opacity:1;fill-rule:evenodd;stroke:none"
           id="path55618"
           inkscape:connector-curvature="0" /><path
           d="m 407.934,255.11 55.023,43.849 55.026,-43.849 -3.513,-4.346 -51.512,41.049 -51.511,-41.049 z"
           style="fill:#e6e6e6;fill-opacity:1;fill-rule:evenodd;stroke:none"
           id="path55620"
           inkscape:connector-curvature="0" /><path
           d="m 373.248,298.959 h 89.709 L 407.934,255.11 h -89.711 z"
           style="fill:#ffffff;fill-opacity:1;fill-rule:evenodd;stroke:none"
           id="path55622"
           inkscape:connector-curvature="0" /><path
           d="m 411.447,250.764 h -89.71 l -3.514,4.346 h 89.711 z"
           style="fill:#cccccc;fill-opacity:1;fill-rule:evenodd;stroke:none"
           id="path55624"
           inkscape:connector-curvature="0" /><path
           d="m 329.642,185.834 h 85.625 v 16.302 h -85.625 z"
           style="fill:#b86812;fill-opacity:1;fill-rule:evenodd;stroke:none"
           id="path55626"
           inkscape:connector-curvature="0" /><path
           d="m 415.267,185.834 h 86.673 v 16.302 h -86.673 z"
           style="fill:#a65907;fill-opacity:1;fill-rule:evenodd;stroke:none"
           id="path55628"
           inkscape:connector-curvature="0" /><path
           d="m 401.356,189.932 h 10.862 v -2.145 h -10.862 z m 0.894,5.03 h 11.085 v -3.255 H 402.25 Z m 1.785,5.695 h 9.001 v -3.92 h -9.001 z m -16.813,-10.579 h 11.979 v -2.441 h -11.979 z m -1.339,4.44 h 14.432 v -3.18 h -14.432 z m 4.166,6.364 h 11.755 v -4.218 h -11.755 z m -16.962,-10.804 h 12.276 v -1.774 h -12.276 z m -2.678,3.923 h 13.54 v -1.775 h -13.54 z m 2.53,6.51 h 15.027 v -4.439 h -15.027 z m -25.518,-10.21 h 7.438 v -1.627 h -7.438 z m 9.225,1.702 h 12.87 v -2.516 h -12.87 z m 2.159,6.731 h 12.722 v -3.032 h -12.722 z m -12.945,2.37 h 10.488 v -3.479 H 345.86 Z m -2.532,-5.328 h 11.012 v -3.477 h -11.012 z m -10.117,-5.032 h 10.714 v -2.514 h -10.714 z m -1.86,6.289 h 8.853 v -3.477 h -8.853 z m 0,3.552 h 10.417 v -1.257 h -10.417 z"
           style="fill:#f0a24f;fill-opacity:1;fill-rule:evenodd;stroke:none"
           id="path55630"
           inkscape:connector-curvature="0" /><path
           d="m 429.587,198.291 h -10.859 v 2.145 h 10.859 z m -0.891,-5.03 h -11.085 v 3.255 h 11.085 z m -1.786,-5.697 h -9.001 v 3.92 h 9.001 z m 16.814,10.58 h -11.978 v 2.441 h 11.978 z m 1.339,-4.44 h -14.434 v 3.183 h 14.434 z m -4.166,-6.361 h -11.755 v 4.217 h 11.755 z m 16.961,10.801 h -12.275 v 1.775 h 12.275 z m 2.679,-3.921 h -13.54 v 1.775 h 13.54 z m -2.53,-6.511 H 442.98 v 4.438 h 15.027 z m 25.518,10.21 h -7.441 v 1.626 h 7.441 z m -9.226,-1.703 h -12.871 v 2.516 h 12.871 z m -2.157,-6.732 h -12.721 v 3.032 h 12.721 z m 12.945,-2.367 h -10.49 v 3.477 h 10.49 z m 2.528,5.327 h -11.01 v 3.477 h 11.01 z m 10.119,5.032 h -10.713 v 2.514 h 10.713 z m 1.863,-6.291 h -8.856 v 3.477 h 8.856 z m 0,-3.551 h -10.419 v 1.26 h 10.419 z"
           style="fill:#e68f33;fill-opacity:1;fill-rule:evenodd;stroke:none"
           id="path55632"
           inkscape:connector-curvature="0" /><path
           d="m 447.706,185.834 h 25.889 v 50.274 h -25.889 z"
           style="fill:#a65907;fill-opacity:1;fill-rule:evenodd;stroke:none"
           id="path55634"
           inkscape:connector-curvature="0" /><path
           d="m 447.706,185.834 h 23.655 v 50.274 h -23.655 z"
           style="fill:#753e02;fill-opacity:1;fill-rule:evenodd;stroke:none"
           id="path55636"
           inkscape:connector-curvature="0" /><path
           d="m 338.716,209.594 h 27.081 v 33.06 h -27.081 z"
           style="fill:#adebfa;fill-opacity:1;fill-rule:evenodd;stroke:none"
           id="path55638"
           inkscape:connector-curvature="0" /><path
           d="m 365.797,241.863 -14.121,-32.269 h 3.566 l 10.555,24.12 z m -8.841,0.79 h 7.132 l -14.467,-33.059 h -7.134 z"
           style="fill:#e5faff;fill-opacity:1;fill-rule:evenodd;stroke:none"
           id="path55640"
           inkscape:connector-curvature="0" /><path
           d="m 338.716,209.594 h 2.78 v 33.06 h -2.78 z"
           style="fill:#4366ad;fill-opacity:1;fill-rule:evenodd;stroke:none"
           id="path55642"
           inkscape:connector-curvature="0" /><path
           d="m 377.401,209.594 h 27.08 v 33.06 h -27.08 z"
           style="fill:#adebfa;fill-opacity:1;fill-rule:evenodd;stroke:none"
           id="path55644"
           inkscape:connector-curvature="0" /><path
           d="m 404.481,241.863 -14.12,-32.269 h 3.566 l 10.554,24.12 z m -8.841,0.79 h 7.132 l -14.466,-33.059 h -7.133 z"
           style="fill:#e5faff;fill-opacity:1;fill-rule:evenodd;stroke:none"
           id="path55646"
           inkscape:connector-curvature="0" /><path
           d="m 377.401,209.594 h 2.782 v 33.06 h -2.782 z"
           style="fill:#4366ad;fill-opacity:1;fill-rule:evenodd;stroke:none"
           id="path55648"
           inkscape:connector-curvature="0" /><path
           d="m 333.786,206.872 h 33.727 v 2.722 h -33.727 z"
           style="fill:#ffffff;fill-opacity:1;fill-rule:evenodd;stroke:none"
           id="path55650"
           inkscape:connector-curvature="0" /><path
           d="m 372.241,206.872 h 33.727 v 2.722 h -33.727 z"
           style="fill:#ffffff;fill-opacity:1;fill-rule:evenodd;stroke:none"
           id="path55652"
           inkscape:connector-curvature="0" /><path
           d="m 49.022,185.834 h 4.114 v 33.05 h -4.114 z"
           style="fill:#996633;fill-opacity:1;fill-rule:evenodd;stroke:none"
           id="path55654"
           inkscape:connector-curvature="0" /><path
           d="m 49.022,198.565 h 4.114 v 20.318 h -4.114 z"
           style="fill:#6b421a;fill-opacity:1;fill-rule:evenodd;stroke:none"
           id="path55656"
           inkscape:connector-curvature="0" /><path
           d="m 51.625,267.292 c 7.877,0 14.262,-29.947 14.262,-48.022 0,-18.077 -6.385,-17.432 -14.262,-17.432 -7.876,0 -14.261,-0.645 -14.261,17.432 0,18.075 6.385,48.022 14.261,48.022"
           style="fill:#cccccc;fill-opacity:1;fill-rule:evenodd;stroke:none"
           id="path55658"
           inkscape:connector-curvature="0" /><path
           d="m 51.625,267.292 c 4.296,0 8.148,-8.909 10.763,-19.94 1.091,-6.971 1.707,-13.992 1.707,-19.868 0,-19.805 -6.997,-19.099 -15.628,-19.099 -3.921,0 -7.504,-0.146 -10.248,1.552 -0.553,2.358 -0.855,5.403 -0.855,9.333 0,18.075 6.385,48.022 14.261,48.022"
           style="fill:#ffffff;fill-opacity:1;fill-rule:evenodd;stroke:none"
           id="path55660"
           inkscape:connector-curvature="0" /><path
           d="m 78.752,185.834 h 3.089 v 24.806 h -3.089 z"
           style="fill:#996633;fill-opacity:1;fill-rule:evenodd;stroke:none"
           id="path55662"
           inkscape:connector-curvature="0" /><path
           d="m 78.752,195.39 h 3.089 v 15.25 h -3.089 z"
           style="fill:#6b421a;fill-opacity:1;fill-rule:evenodd;stroke:none"
           id="path55664"
           inkscape:connector-curvature="0" /><path
           d="m 80.706,246.975 c 5.914,0 10.705,-22.479 10.705,-36.045 0,-13.568 -4.791,-13.083 -10.705,-13.083 -5.913,0 -10.704,-0.485 -10.704,13.083 0,13.566 4.791,36.045 10.704,36.045"
           style="fill:#cccccc;fill-opacity:1;fill-rule:evenodd;stroke:none"
           id="path55666"
           inkscape:connector-curvature="0" /><path
           d="m 80.706,246.975 c 3.225,0 6.115,-6.687 8.078,-14.968 0.821,-5.231 1.282,-10.5 1.282,-14.911 0,-14.867 -5.252,-14.336 -11.731,-14.336 -2.941,0 -5.631,-0.11 -7.691,1.165 -0.415,1.77 -0.642,4.055 -0.642,7.005 0,13.566 4.791,36.045 10.704,36.045"
           style="fill:#ffffff;fill-opacity:1;fill-rule:evenodd;stroke:none"
           id="path55668"
           inkscape:connector-curvature="0" /><path
           d="m 261.441,185.834 h 4.116 v 33.05 h -4.116 z"
           style="fill:#996633;fill-opacity:1;fill-rule:evenodd;stroke:none"
           id="path55670"
           inkscape:connector-curvature="0" /><path
           d="m 261.441,198.565 h 4.116 v 20.318 h -4.116 z"
           style="fill:#6b421a;fill-opacity:1;fill-rule:evenodd;stroke:none"
           id="path55672"
           inkscape:connector-curvature="0" /><path
           d="m 264.044,267.292 c 7.878,0 14.264,-29.947 14.264,-48.022 0,-18.077 -6.386,-17.432 -14.264,-17.432 -7.875,0 -14.26,-0.645 -14.26,17.432 0,18.075 6.385,48.022 14.26,48.022"
           style="fill:#cccccc;fill-opacity:1;fill-rule:evenodd;stroke:none"
           id="path55674"
           inkscape:connector-curvature="0" /><path
           d="m 264.044,267.292 c 4.296,0 8.15,-8.909 10.764,-19.94 1.092,-6.971 1.707,-13.992 1.707,-19.868 0,-19.805 -6.996,-19.099 -15.628,-19.099 -3.921,0 -7.503,-0.146 -10.247,1.552 -0.554,2.358 -0.856,5.403 -0.856,9.333 0,18.075 6.385,48.022 14.26,48.022"
           style="fill:#ffffff;fill-opacity:1;fill-rule:evenodd;stroke:none"
           id="path55676"
           inkscape:connector-curvature="0" /><path
           d="m 544.692,185.834 h 3.087 v 24.806 h -3.087 z"
           style="fill:#996633;fill-opacity:1;fill-rule:evenodd;stroke:none"
           id="path55678"
           inkscape:connector-curvature="0" /><path
           d="m 544.692,195.39 h 3.087 v 15.25 h -3.087 z"
           style="fill:#6b421a;fill-opacity:1;fill-rule:evenodd;stroke:none"
           id="path55680"
           inkscape:connector-curvature="0" /><path
           d="m 546.646,246.975 c 5.911,0 10.704,-22.479 10.704,-36.045 0,-13.568 -4.793,-13.083 -10.704,-13.083 -5.913,0 -10.705,-0.485 -10.705,13.083 0,13.566 4.792,36.045 10.705,36.045"
           style="fill:#cccccc;fill-opacity:1;fill-rule:evenodd;stroke:none"
           id="path55682"
           inkscape:connector-curvature="0" /><path
           d="m 546.646,246.975 c 3.225,0 6.115,-6.687 8.079,-14.968 0.818,-5.231 1.282,-10.5 1.282,-14.911 0,-14.867 -5.252,-14.336 -11.733,-14.336 -2.94,0 -5.631,-0.11 -7.69,1.165 -0.416,1.77 -0.643,4.055 -0.643,7.005 0,13.566 4.792,36.045 10.705,36.045"
           style="fill:#ffffff;fill-opacity:1;fill-rule:evenodd;stroke:none"
           id="path55684"
           inkscape:connector-curvature="0" /><path
           d="m 521.621,185.834 h 2.496 v 20.049 h -2.496 z"
           style="fill:#996633;fill-opacity:1;fill-rule:evenodd;stroke:none"
           id="path55686"
           inkscape:connector-curvature="0" /><path
           d="m 521.621,193.557 h 2.496 v 12.326 h -2.496 z"
           style="fill:#6b421a;fill-opacity:1;fill-rule:evenodd;stroke:none"
           id="path55688"
           inkscape:connector-curvature="0" /><path
           d="m 523.201,235.251 c 4.778,0 8.652,-18.17 8.652,-29.133 0,-10.967 -3.874,-10.575 -8.652,-10.575 -4.778,0 -8.651,-0.392 -8.651,10.575 0,10.963 3.873,29.133 8.651,29.133"
           style="fill:#cccccc;fill-opacity:1;fill-rule:evenodd;stroke:none"
           id="path55690"
           inkscape:connector-curvature="0" /><path
           d="m 523.201,235.251 c 2.607,0 4.943,-5.407 6.528,-12.099 0.663,-4.227 1.036,-8.487 1.036,-12.05 0,-12.018 -4.244,-11.587 -9.48,-11.587 -2.379,0 -4.554,-0.09 -6.218,0.94 -0.336,1.432 -0.517,3.277 -0.517,5.663 0,10.963 3.873,29.133 8.651,29.133"
           style="fill:#ffffff;fill-opacity:1;fill-rule:evenodd;stroke:none"
           id="path55692"
           inkscape:connector-curvature="0" /><path
           d="m 416.679,406.798 c 1.51,0 2.743,1.225 2.743,2.727 0,1.502 -1.233,2.727 -2.743,2.727 -1.51,0 -2.742,-1.225 -2.742,-2.727 0,-1.502 1.232,-2.727 2.742,-2.727"
           style="fill:#ffffff;fill-opacity:1;fill-rule:evenodd;stroke:none"
           id="path55694"
           inkscape:connector-curvature="0" /><path
           d="m 355.792,447.707 c 1.511,0 2.742,1.225 2.742,2.728 0,1.502 -1.231,2.727 -2.742,2.727 -1.511,0 -2.743,-1.225 -2.743,-2.727 0,-1.503 1.232,-2.728 2.743,-2.728"
           style="fill:#ffffff;fill-opacity:1;fill-rule:evenodd;stroke:none"
           id="path55696"
           inkscape:connector-curvature="0" /><path
           d="m 383.219,465.162 c 1.51,0 2.742,1.225 2.742,2.727 0,1.501 -1.232,2.727 -2.742,2.727 -1.511,0 -2.742,-1.226 -2.742,-2.727 0,-1.502 1.231,-2.727 2.742,-2.727"
           style="fill:#ffffff;fill-opacity:1;fill-rule:evenodd;stroke:none"
           id="path55698"
           inkscape:connector-curvature="0" /><path
           d="m 414.211,467.889 c 1.058,0 1.92,0.858 1.92,1.909 0,1.051 -0.862,1.909 -1.92,1.909 -1.059,0 -1.919,-0.858 -1.919,-1.909 0,-1.051 0.86,-1.909 1.919,-1.909"
           style="fill:#ffffff;fill-opacity:1;fill-rule:evenodd;stroke:none"
           id="path55700"
           inkscape:connector-curvature="0" /><path
           d="m 446.301,460.798 c 2.114,0 3.839,1.716 3.839,3.818 0,2.103 -1.725,3.819 -3.839,3.819 -2.114,0 -3.84,-1.716 -3.84,-3.819 0,-2.102 1.726,-3.818 3.84,-3.818"
           style="fill:#ffffff;fill-opacity:1;fill-rule:evenodd;stroke:none"
           id="path55702"
           inkscape:connector-curvature="0" /><path
           d="m 476.195,455.888 c 0.755,0 1.371,0.613 1.371,1.365 0,0.75 -0.616,1.363 -1.371,1.363 -0.756,0 -1.372,-0.613 -1.372,-1.363 0,-0.752 0.616,-1.365 1.372,-1.365"
           style="fill:#ffffff;fill-opacity:1;fill-rule:evenodd;stroke:none"
           id="path55704"
           inkscape:connector-curvature="0" /><path
           d="m 488.537,428.07 c 0.907,0 1.647,0.735 1.647,1.636 0,0.902 -0.74,1.636 -1.647,1.636 -0.905,0 -1.644,-0.734 -1.644,-1.636 0,-0.901 0.739,-1.636 1.644,-1.636"
           style="fill:#ffffff;fill-opacity:1;fill-rule:evenodd;stroke:none"
           id="path55706"
           inkscape:connector-curvature="0" /><path
           d="m 476.195,400.252 c 1.057,0 1.919,0.858 1.919,1.909 0,1.051 -0.862,1.909 -1.919,1.909 -1.057,0 -1.92,-0.858 -1.92,-1.909 0,-1.051 0.863,-1.909 1.92,-1.909"
           style="fill:#ffffff;fill-opacity:1;fill-rule:evenodd;stroke:none"
           id="path55708"
           inkscape:connector-curvature="0" /><path
           d="m 402.966,359.888 c 1.511,0 2.742,1.225 2.742,2.727 0,1.502 -1.231,2.727 -2.742,2.727 -1.509,0 -2.743,-1.225 -2.743,-2.727 0,-1.502 1.234,-2.727 2.743,-2.727"
           style="fill:#ffffff;fill-opacity:1;fill-rule:evenodd;stroke:none"
           id="path55710"
           inkscape:connector-curvature="0" /><path
           d="m 433.684,353.343 c 1.814,0 3.293,1.47 3.293,3.272 0,1.802 -1.479,3.273 -3.293,3.273 -1.811,0 -3.289,-1.471 -3.289,-3.273 0,-1.802 1.478,-3.272 3.289,-3.272"
           style="fill:#ffffff;fill-opacity:1;fill-rule:evenodd;stroke:none"
           id="path55712"
           inkscape:connector-curvature="0" /><path
           d="m 365.939,406.251 c 2.87,0 5.212,2.329 5.212,5.183 0,2.854 -2.342,5.182 -5.212,5.182 -2.869,0 -5.211,-2.328 -5.211,-5.182 0,-2.854 2.342,-5.183 5.211,-5.183"
           style="fill:#ffffff;fill-opacity:1;fill-rule:evenodd;stroke:none"
           id="path55714"
           inkscape:connector-curvature="0" /><path
           d="m 398.304,443.344 c 1.056,0 1.919,0.858 1.919,1.908 0,1.051 -0.863,1.91 -1.919,1.91 -1.058,0 -1.922,-0.859 -1.922,-1.91 0,-1.05 0.864,-1.908 1.922,-1.908"
           style="fill:#ffffff;fill-opacity:1;fill-rule:evenodd;stroke:none"
           id="path55716"
           inkscape:connector-curvature="0" /><path
           d="m 444.929,402.979 c 0.756,0 1.372,0.613 1.372,1.364 0,0.75 -0.616,1.364 -1.372,1.364 -0.755,0 -1.371,-0.614 -1.371,-1.364 0,-0.751 0.616,-1.364 1.371,-1.364"
           style="fill:#ffffff;fill-opacity:1;fill-rule:evenodd;stroke:none"
           id="path55718"
           inkscape:connector-curvature="0" /><path
           d="m 227.982,447.161 c 1.511,0 2.743,1.225 2.743,2.728 0,1.502 -1.232,2.727 -2.743,2.727 -1.51,0 -2.743,-1.225 -2.743,-2.727 0,-1.503 1.233,-2.728 2.743,-2.728"
           style="fill:#ffffff;fill-opacity:1;fill-rule:evenodd;stroke:none"
           id="path55720"
           inkscape:connector-curvature="0" /><path
           d="m 263.912,430.798 c 1.057,0 1.92,0.857 1.92,1.909 0,1.051 -0.863,1.909 -1.92,1.909 -1.057,0 -1.921,-0.858 -1.921,-1.909 0,-1.052 0.864,-1.909 1.921,-1.909"
           style="fill:#ffffff;fill-opacity:1;fill-rule:evenodd;stroke:none"
           id="path55722"
           inkscape:connector-curvature="0" /><path
           d="m 277.076,462.434 c 1.964,0 3.567,1.592 3.567,3.545 0,1.953 -1.603,3.545 -3.567,3.545 -1.963,0 -3.565,-1.592 -3.565,-3.545 0,-1.953 1.602,-3.545 3.565,-3.545"
           style="fill:#ffffff;fill-opacity:1;fill-rule:evenodd;stroke:none"
           id="path55724"
           inkscape:connector-curvature="0" /><path
           d="m 300.115,434.615 c 1.662,0 3.016,1.347 3.016,3.001 0,1.652 -1.354,2.999 -3.016,2.999 -1.662,0 -3.016,-1.347 -3.016,-2.999 0,-1.654 1.354,-3.001 3.016,-3.001"
           style="fill:#ffffff;fill-opacity:1;fill-rule:evenodd;stroke:none"
           id="path55726"
           inkscape:connector-curvature="0" /><path
           d="m 361.002,495.161 c 1.058,0 1.922,0.858 1.922,1.91 0,1.051 -0.864,1.909 -1.922,1.909 -1.057,0 -1.919,-0.858 -1.919,-1.909 0,-1.052 0.862,-1.91 1.919,-1.91"
           style="fill:#ffffff;fill-opacity:1;fill-rule:evenodd;stroke:none"
           id="path55728"
           inkscape:connector-curvature="0" /><path
           d="m 422.439,496.252 c 1.057,0 1.92,0.858 1.92,1.91 0,1.051 -0.863,1.91 -1.92,1.91 -1.058,0 -1.919,-0.859 -1.919,-1.91 0,-1.052 0.861,-1.91 1.919,-1.91"
           style="fill:#ffffff;fill-opacity:1;fill-rule:evenodd;stroke:none"
           id="path55730"
           inkscape:connector-curvature="0" /><path
           d="m 464.676,489.708 c 1.359,0 2.47,1.102 2.47,2.454 0,1.353 -1.111,2.455 -2.47,2.455 -1.359,0 -2.468,-1.102 -2.468,-2.455 0,-1.352 1.109,-2.454 2.468,-2.454"
           style="fill:#ffffff;fill-opacity:1;fill-rule:evenodd;stroke:none"
           id="path55732"
           inkscape:connector-curvature="0" /><path
           d="m 507.188,474.434 c 1.512,0 2.743,1.225 2.743,2.728 0,1.501 -1.231,2.727 -2.743,2.727 -1.511,0 -2.743,-1.226 -2.743,-2.727 0,-1.503 1.232,-2.728 2.743,-2.728"
           style="fill:#ffffff;fill-opacity:1;fill-rule:evenodd;stroke:none"
           id="path55734"
           inkscape:connector-curvature="0" /><path
           d="m 512.673,437.343 c 1.511,0 2.743,1.224 2.743,2.727 0,1.502 -1.232,2.728 -2.743,2.728 -1.511,0 -2.742,-1.226 -2.742,-2.728 0,-1.503 1.231,-2.727 2.742,-2.727"
           style="fill:#ffffff;fill-opacity:1;fill-rule:evenodd;stroke:none"
           id="path55736"
           inkscape:connector-curvature="0" /><path
           d="m 518.981,411.162 c 1.663,0 3.018,1.347 3.018,2.999 0,1.652 -1.355,3 -3.018,3 -1.662,0 -3.017,-1.348 -3.017,-3 0,-1.652 1.355,-2.999 3.017,-2.999"
           style="fill:#ffffff;fill-opacity:1;fill-rule:evenodd;stroke:none"
           id="path55738"
           inkscape:connector-curvature="0" /><path
           d="m 505.816,382.253 c 0.755,0 1.372,0.611 1.372,1.364 0,0.749 -0.617,1.363 -1.372,1.363 -0.755,0 -1.371,-0.614 -1.371,-1.363 0,-0.753 0.616,-1.364 1.371,-1.364"
           style="fill:#ffffff;fill-opacity:1;fill-rule:evenodd;stroke:none"
           id="path55740"
           inkscape:connector-curvature="0" /><path
           d="m 502.525,356.615 c 1.36,0 2.468,1.103 2.468,2.456 0,1.349 -1.108,2.454 -2.468,2.454 -1.36,0 -2.467,-1.105 -2.467,-2.454 0,-1.353 1.107,-2.456 2.467,-2.456"
           style="fill:#ffffff;fill-opacity:1;fill-rule:evenodd;stroke:none"
           id="path55742"
           inkscape:connector-curvature="0" /><path
           d="m 463.853,368.07 c 1.209,0 2.195,0.98 2.195,2.182 0,1.202 -0.986,2.182 -2.195,2.182 -1.208,0 -2.195,-0.98 -2.195,-2.182 0,-1.202 0.987,-2.182 2.195,-2.182"
           style="fill:#ffffff;fill-opacity:1;fill-rule:evenodd;stroke:none"
           id="path55744"
           inkscape:connector-curvature="0" /><path
           d="m 430.119,432.979 c 2.265,0 4.114,1.838 4.114,4.091 0,2.254 -1.849,4.092 -4.114,4.092 -2.267,0 -4.114,-1.838 -4.114,-4.092 0,-2.253 1.847,-4.091 4.114,-4.091"
           style="fill:#ffffff;fill-opacity:1;fill-rule:evenodd;stroke:none"
           id="path55746"
           inkscape:connector-curvature="0" /><path
           d="m 84.54,484.252 c 1.057,0 1.919,0.858 1.919,1.91 0,1.05 -0.862,1.908 -1.919,1.908 -1.058,0 -1.92,-0.858 -1.92,-1.908 0,-1.052 0.862,-1.91 1.92,-1.91"
           style="fill:#ffffff;fill-opacity:1;fill-rule:evenodd;stroke:none"
           id="path55748"
           inkscape:connector-curvature="0" /><path
           d="m 89.477,456.979 c 2.567,0 4.664,2.082 4.664,4.636 0,2.554 -2.097,4.637 -4.664,4.637 -2.568,0 -4.663,-2.083 -4.663,-4.637 0,-2.554 2.095,-4.636 4.663,-4.636"
           style="fill:#ffffff;fill-opacity:1;fill-rule:evenodd;stroke:none"
           id="path55750"
           inkscape:connector-curvature="0" /><path
           d="m 81.797,428.615 c 1.359,0 2.469,1.103 2.469,2.455 0,1.352 -1.11,2.454 -2.469,2.454 -1.359,0 -2.469,-1.102 -2.469,-2.454 0,-1.352 1.11,-2.455 2.469,-2.455"
           style="fill:#ffffff;fill-opacity:1;fill-rule:evenodd;stroke:none"
           id="path55752"
           inkscape:connector-curvature="0" /><path
           d="m 74.94,393.161 c 1.209,0 2.195,0.98 2.195,2.182 0,1.202 -0.986,2.182 -2.195,2.182 -1.209,0 -2.194,-0.98 -2.194,-2.182 0,-1.202 0.985,-2.182 2.194,-2.182"
           style="fill:#ffffff;fill-opacity:1;fill-rule:evenodd;stroke:none"
           id="path55754"
           inkscape:connector-curvature="0" /><path
           d="m 96.883,408.979 c 1.511,0 2.743,1.225 2.743,2.727 0,1.502 -1.232,2.727 -2.743,2.727 -1.512,0 -2.744,-1.225 -2.744,-2.727 0,-1.502 1.232,-2.727 2.744,-2.727"
           style="fill:#ffffff;fill-opacity:1;fill-rule:evenodd;stroke:none"
           id="path55756"
           inkscape:connector-curvature="0" /><path
           d="m 130.342,431.342 c 1.511,0 2.742,1.225 2.742,2.728 0,1.502 -1.231,2.727 -2.742,2.727 -1.511,0 -2.743,-1.225 -2.743,-2.727 0,-1.503 1.232,-2.728 2.743,-2.728"
           style="fill:#ffffff;fill-opacity:1;fill-rule:evenodd;stroke:none"
           id="path55758"
           inkscape:connector-curvature="0" /><path
           d="m 137.749,461.888 c 1.66,0 3.017,1.348 3.017,3 0,1.652 -1.357,3 -3.017,3 -1.663,0 -3.018,-1.348 -3.018,-3 0,-1.652 1.355,-3 3.018,-3"
           style="fill:#ffffff;fill-opacity:1;fill-rule:evenodd;stroke:none"
           id="path55760"
           inkscape:connector-curvature="0" /><path
           d="m 156.947,483.706 c 2.871,0 5.211,2.328 5.211,5.182 0,2.854 -2.34,5.182 -5.211,5.182 -2.871,0 -5.21,-2.328 -5.21,-5.182 0,-2.854 2.339,-5.182 5.21,-5.182"
           style="fill:#ffffff;fill-opacity:1;fill-rule:evenodd;stroke:none"
           id="path55762"
           inkscape:connector-curvature="0" /><path
           d="m 175.871,492.98 c 1.511,0 2.743,1.225 2.743,2.727 0,1.501 -1.232,2.728 -2.743,2.728 -1.511,0 -2.743,-1.227 -2.743,-2.728 0,-1.502 1.232,-2.727 2.743,-2.727"
           style="fill:#ffffff;fill-opacity:1;fill-rule:evenodd;stroke:none"
           id="path55764"
           inkscape:connector-curvature="0" /><path
           d="m 200.83,494.07 c 1.661,0 3.018,1.348 3.018,3 0,1.652 -1.357,3 -3.018,3 -1.66,0 -3.017,-1.348 -3.017,-3 0,-1.652 1.357,-3 3.017,-3"
           style="fill:#ffffff;fill-opacity:1;fill-rule:evenodd;stroke:none"
           id="path55766"
           inkscape:connector-curvature="0" /><path
           d="m 234.564,502.798 c 1.209,0 2.196,0.98 2.196,2.181 0,1.202 -0.987,2.183 -2.196,2.183 -1.207,0 -2.193,-0.981 -2.193,-2.183 0,-1.201 0.986,-2.181 2.193,-2.181"
           style="fill:#ffffff;fill-opacity:1;fill-rule:evenodd;stroke:none"
           id="path55768"
           inkscape:connector-curvature="0" /><path
           d="m 273.236,497.342 c 0.756,0 1.372,0.613 1.372,1.364 0,0.752 -0.616,1.364 -1.372,1.364 -0.753,0 -1.371,-0.612 -1.371,-1.364 0,-0.751 0.618,-1.364 1.371,-1.364"
           style="fill:#ffffff;fill-opacity:1;fill-rule:evenodd;stroke:none"
           id="path55770"
           inkscape:connector-curvature="0" /><path
           d="m 305.053,491.343 c 1.056,0 1.921,0.858 1.921,1.909 0,1.051 -0.865,1.909 -1.921,1.909 -1.058,0 -1.92,-0.858 -1.92,-1.909 0,-1.051 0.862,-1.909 1.92,-1.909"
           style="fill:#ffffff;fill-opacity:1;fill-rule:evenodd;stroke:none"
           id="path55772"
           inkscape:connector-curvature="0" /><path
           d="m 322.604,462.979 c 2.57,0 4.665,2.083 4.665,4.637 0,2.553 -2.095,4.635 -4.665,4.635 -2.567,0 -4.66,-2.082 -4.66,-4.635 0,-2.554 2.093,-4.637 4.66,-4.637"
           style="fill:#ffffff;fill-opacity:1;fill-rule:evenodd;stroke:none"
           id="path55774"
           inkscape:connector-curvature="0" /><path
           d="m 179.985,456.979 c 1.057,0 1.921,0.858 1.921,1.909 0,1.052 -0.864,1.91 -1.921,1.91 -1.057,0 -1.92,-0.858 -1.92,-1.91 0,-1.051 0.863,-1.909 1.92,-1.909"
           style="fill:#ffffff;fill-opacity:1;fill-rule:evenodd;stroke:none"
           id="path55776"
           inkscape:connector-curvature="0" /><path
           d="m 229.079,477.162 c 2.417,0 4.389,1.96 4.389,4.363 0,2.403 -1.972,4.363 -4.389,4.363 -2.416,0 -4.388,-1.96 -4.388,-4.363 0,-2.403 1.972,-4.363 4.388,-4.363"
           style="fill:#ffffff;fill-opacity:1;fill-rule:evenodd;stroke:none"
           id="path55778"
           inkscape:connector-curvature="0" /><path
           d="m 162.981,416.615 c 1.962,0 3.566,1.593 3.566,3.546 0,1.952 -1.604,3.546 -3.566,3.546 -1.964,0 -3.566,-1.594 -3.566,-3.546 0,-1.953 1.602,-3.546 3.566,-3.546"
           style="fill:#ffffff;fill-opacity:1;fill-rule:evenodd;stroke:none"
           id="path55780"
           inkscape:connector-curvature="0" /><path
           d="m 200.28,417.707 c 0.758,0 1.372,0.612 1.372,1.363 0,0.75 -0.614,1.363 -1.372,1.363 -0.753,0 -1.371,-0.613 -1.371,-1.363 0,-0.751 0.618,-1.363 1.371,-1.363"
           style="fill:#ffffff;fill-opacity:1;fill-rule:evenodd;stroke:none"
           id="path55782"
           inkscape:connector-curvature="0" /><path
           d="m 113.339,390.433 c 1.207,0 2.193,0.981 2.193,2.182 0,1.2 -0.986,2.183 -2.193,2.183 -1.21,0 -2.196,-0.983 -2.196,-2.183 0,-1.201 0.986,-2.182 2.196,-2.182"
           style="fill:#ffffff;fill-opacity:1;fill-rule:evenodd;stroke:none"
           id="path55784"
           inkscape:connector-curvature="0" /><path
           d="m 312.184,399.16 c 1.964,0 3.564,1.593 3.564,3.546 0,1.953 -1.6,3.544 -3.564,3.544 -1.964,0 -3.566,-1.591 -3.566,-3.544 0,-1.953 1.602,-3.546 3.566,-3.546"
           style="fill:#ffffff;fill-opacity:1;fill-rule:evenodd;stroke:none"
           id="path55786"
           inkscape:connector-curvature="0" /><path
           d="m 336.868,383.889 c 1.359,0 2.468,1.102 2.468,2.453 0,1.351 -1.109,2.456 -2.468,2.456 -1.36,0 -2.47,-1.105 -2.47,-2.456 0,-1.351 1.11,-2.453 2.47,-2.453"
           style="fill:#ffffff;fill-opacity:1;fill-rule:evenodd;stroke:none"
           id="path55788"
           inkscape:connector-curvature="0" /><path
           d="m 372.662,342.16 c 0.983,0 1.782,0.796 1.782,1.773 0,0.976 -0.799,1.773 -1.782,1.773 -0.982,0 -1.783,-0.797 -1.783,-1.773 0,-0.977 0.801,-1.773 1.783,-1.773"
           style="fill:#ffffff;fill-opacity:1;fill-rule:evenodd;stroke:none"
           id="path55790"
           inkscape:connector-curvature="0" /><path
           d="m 381.026,333.162 c 0.757,0 1.371,0.61 1.371,1.362 0,0.751 -0.614,1.364 -1.371,1.364 -0.754,0 -1.372,-0.613 -1.372,-1.364 0,-0.752 0.618,-1.362 1.372,-1.362"
           style="fill:#ffffff;fill-opacity:1;fill-rule:evenodd;stroke:none"
           id="path55792"
           inkscape:connector-curvature="0" /><path
           d="m 375.405,320.069 c 0.83,0 1.507,0.675 1.507,1.5 0,0.826 -0.677,1.5 -1.507,1.5 -0.832,0 -1.51,-0.674 -1.51,-1.5 0,-0.825 0.678,-1.5 1.51,-1.5"
           style="fill:#ffffff;fill-opacity:1;fill-rule:evenodd;stroke:none"
           id="path55794"
           inkscape:connector-curvature="0" /><path
           d="m 398.854,311.887 c 1.814,0 3.292,1.47 3.292,3.274 0,1.801 -1.478,3.271 -3.292,3.271 -1.811,0 -3.29,-1.47 -3.29,-3.271 0,-1.804 1.479,-3.274 3.29,-3.274"
           style="fill:#ffffff;fill-opacity:1;fill-rule:evenodd;stroke:none"
           id="path55796"
           inkscape:connector-curvature="0" /><path
           d="m 415.31,332.889 c 1.211,0 2.194,0.98 2.194,2.18 0,1.202 -0.983,2.182 -2.194,2.182 -1.207,0 -2.193,-0.98 -2.193,-2.182 0,-1.2 0.986,-2.18 2.193,-2.18"
           style="fill:#ffffff;fill-opacity:1;fill-rule:evenodd;stroke:none"
           id="path55798"
           inkscape:connector-curvature="0" /><path
           d="m 450.279,318.16 c 1.585,0 2.88,1.287 2.88,2.864 0,1.577 -1.295,2.864 -2.88,2.864 -1.586,0 -2.879,-1.287 -2.879,-2.864 0,-1.577 1.293,-2.864 2.879,-2.864"
           style="fill:#ffffff;fill-opacity:1;fill-rule:evenodd;stroke:none"
           id="path55800"
           inkscape:connector-curvature="0" /><path
           d="m 470.301,306.432 c 0.83,0 1.509,0.675 1.509,1.501 0,0.826 -0.679,1.5 -1.509,1.5 -0.83,0 -1.509,-0.674 -1.509,-1.5 0,-0.826 0.679,-1.501 1.509,-1.501"
           style="fill:#ffffff;fill-opacity:1;fill-rule:evenodd;stroke:none"
           id="path55802"
           inkscape:connector-curvature="0" /><path
           d="m 499.236,303.16 c 1.209,0 2.195,0.98 2.195,2.182 0,1.202 -0.986,2.182 -2.195,2.182 -1.209,0 -2.194,-0.98 -2.194,-2.182 0,-1.202 0.985,-2.182 2.194,-2.182"
           style="fill:#ffffff;fill-opacity:1;fill-rule:evenodd;stroke:none"
           id="path55804"
           inkscape:connector-curvature="0" /><path
           d="m 522.96,293.886 c 0.227,0 0.412,0.184 0.412,0.411 0,0.225 -0.185,0.409 -0.412,0.409 -0.225,0 -0.411,-0.184 -0.411,-0.409 0,-0.227 0.186,-0.411 0.411,-0.411"
           style="fill:#ffffff;fill-opacity:1;fill-rule:evenodd;stroke:none"
           id="path55806"
           inkscape:connector-curvature="0" /><path
           d="m 513.36,275.889 c 0.983,0 1.785,0.796 1.785,1.772 0,0.976 -0.802,1.773 -1.785,1.773 -0.981,0 -1.782,-0.797 -1.782,-1.773 0,-0.976 0.801,-1.772 1.782,-1.772"
           style="fill:#ffffff;fill-opacity:1;fill-rule:evenodd;stroke:none"
           id="path55808"
           inkscape:connector-curvature="0" /><path
           d="m 534.343,318.979 c 1.207,0 2.194,0.979 2.194,2.182 0,1.202 -0.987,2.182 -2.194,2.182 -1.208,0 -2.195,-0.98 -2.195,-2.182 0,-1.203 0.987,-2.182 2.195,-2.182"
           style="fill:#ffffff;fill-opacity:1;fill-rule:evenodd;stroke:none"
           id="path55810"
           inkscape:connector-curvature="0" /><path
           d="m 548.88,297.978 c 0.603,0 1.097,0.49 1.097,1.089 0,0.602 -0.494,1.092 -1.097,1.092 -0.606,0 -1.099,-0.49 -1.099,-1.092 0,-0.599 0.493,-1.089 1.099,-1.089"
           style="fill:#ffffff;fill-opacity:1;fill-rule:evenodd;stroke:none"
           id="path55812"
           inkscape:connector-curvature="0" /><path
           d="m 561.771,280.522 c 0.753,0 1.372,0.614 1.372,1.365 0,0.751 -0.619,1.364 -1.372,1.364 -0.757,0 -1.372,-0.613 -1.372,-1.364 0,-0.751 0.615,-1.365 1.372,-1.365"
           style="fill:#ffffff;fill-opacity:1;fill-rule:evenodd;stroke:none"
           id="path55814"
           inkscape:connector-curvature="0" /><path
           d="m 574.523,266.343 c 0.375,0 0.686,0.306 0.686,0.68 0,0.374 -0.311,0.683 -0.686,0.683 -0.377,0 -0.685,-0.309 -0.685,-0.683 0,-0.374 0.308,-0.68 0.685,-0.68"
           style="fill:#ffffff;fill-opacity:1;fill-rule:evenodd;stroke:none"
           id="path55816"
           inkscape:connector-curvature="0" /><path
           d="m 560.811,333.979 c 1.131,0 2.056,0.917 2.056,2.045 0,1.126 -0.925,2.046 -2.056,2.046 -1.133,0 -2.058,-0.92 -2.058,-2.046 0,-1.128 0.925,-2.045 2.058,-2.045"
           style="fill:#ffffff;fill-opacity:1;fill-rule:evenodd;stroke:none"
           id="path55818"
           inkscape:connector-curvature="0" /><path
           d="m 555.189,405.707 c 0.678,0 1.232,0.551 1.232,1.227 0,0.675 -0.554,1.227 -1.232,1.227 -0.682,0 -1.236,-0.552 -1.236,-1.227 0,-0.676 0.554,-1.227 1.236,-1.227"
           style="fill:#ffffff;fill-opacity:1;fill-rule:evenodd;stroke:none"
           id="path55820"
           inkscape:connector-curvature="0" /><path
           d="m 487.58,333.162 c 0.981,0 1.782,0.796 1.782,1.772 0,0.977 -0.801,1.772 -1.782,1.772 -0.982,0 -1.784,-0.795 -1.784,-1.772 0,-0.976 0.802,-1.772 1.784,-1.772"
           style="fill:#ffffff;fill-opacity:1;fill-rule:evenodd;stroke:none"
           id="path55822"
           inkscape:connector-curvature="0" /><path
           d="m 460.016,347.341 c 1.359,0 2.469,1.103 2.469,2.454 0,1.353 -1.11,2.456 -2.469,2.456 -1.359,0 -2.468,-1.103 -2.468,-2.456 0,-1.351 1.109,-2.454 2.468,-2.454"
           style="fill:#ffffff;fill-opacity:1;fill-rule:evenodd;stroke:none"
           id="path55824"
           inkscape:connector-curvature="0" /><path
           d="m 540.104,438.161 c 0.754,0 1.371,0.613 1.371,1.363 0,0.751 -0.617,1.365 -1.371,1.365 -0.756,0 -1.37,-0.614 -1.37,-1.365 0,-0.75 0.614,-1.363 1.37,-1.363"
           style="fill:#ffffff;fill-opacity:1;fill-rule:evenodd;stroke:none"
           id="path55826"
           inkscape:connector-curvature="0" /><path
           d="m 544.49,354.979 c 0.907,0 1.647,0.735 1.647,1.635 0,0.902 -0.74,1.636 -1.647,1.636 -0.906,0 -1.645,-0.734 -1.645,-1.636 0,-0.9 0.739,-1.635 1.645,-1.635"
           style="fill:#ffffff;fill-opacity:1;fill-rule:evenodd;stroke:none"
           id="path55828"
           inkscape:connector-curvature="0" /><path
           d="m 513.225,338.07 c 1.057,0 1.92,0.857 1.92,1.909 0,1.05 -0.863,1.908 -1.92,1.908 -1.059,0 -1.921,-0.858 -1.921,-1.908 0,-1.052 0.862,-1.909 1.921,-1.909"
           style="fill:#ffffff;fill-opacity:1;fill-rule:evenodd;stroke:none"
           id="path55830"
           inkscape:connector-curvature="0" /><path
           d="m 532.422,390.707 c 0.755,0 1.371,0.612 1.371,1.363 0,0.751 -0.616,1.364 -1.371,1.364 -0.756,0 -1.371,-0.613 -1.371,-1.364 0,-0.751 0.615,-1.363 1.371,-1.363"
           style="fill:#ffffff;fill-opacity:1;fill-rule:evenodd;stroke:none"
           id="path55832"
           inkscape:connector-curvature="0" /><path
           d="m 528.312,474.434 c 0.907,0 1.646,0.735 1.646,1.636 0,0.901 -0.739,1.636 -1.646,1.636 -0.906,0 -1.645,-0.735 -1.645,-1.636 0,-0.901 0.739,-1.636 1.645,-1.636"
           style="fill:#ffffff;fill-opacity:1;fill-rule:evenodd;stroke:none"
           id="path55834"
           inkscape:connector-curvature="0" /><path
           d="m 562.867,366.433 c 1.207,0 2.193,0.98 2.193,2.182 0,1.202 -0.986,2.182 -2.193,2.182 -1.211,0 -2.196,-0.98 -2.196,-2.182 0,-1.202 0.985,-2.182 2.196,-2.182"
           style="fill:#ffffff;fill-opacity:1;fill-rule:evenodd;stroke:none"
           id="path55836"
           inkscape:connector-curvature="0" /><path
           d="m 57.116,453.979 c 3.021,0 5.485,2.451 5.485,5.455 0,3.004 -2.464,5.455 -5.485,5.455 -3.021,0 -5.486,-2.451 -5.486,-5.455 0,-3.004 2.465,-5.455 5.486,-5.455"
           style="fill:#ffffff;fill-opacity:1;fill-rule:evenodd;stroke:none"
           id="path55838"
           inkscape:connector-curvature="0" /><path
           d="m 55.197,419.615 c 0.755,0 1.371,0.614 1.371,1.364 0,0.751 -0.616,1.364 -1.371,1.364 -0.756,0 -1.372,-0.613 -1.372,-1.364 0,-0.75 0.616,-1.364 1.372,-1.364"
           style="fill:#ffffff;fill-opacity:1;fill-rule:evenodd;stroke:none"
           id="path55840"
           inkscape:connector-curvature="0" /><path
           d="m 59.036,375.978 c 2.266,0 4.114,1.838 4.114,4.091 0,2.255 -1.848,4.091 -4.114,4.091 -2.266,0 -4.114,-1.836 -4.114,-4.091 0,-2.253 1.848,-4.091 4.114,-4.091"
           style="fill:#ffffff;fill-opacity:1;fill-rule:evenodd;stroke:none"
           id="path55842"
           inkscape:connector-curvature="0" /><path
           d="m 69.732,354.707 c 1.209,0 2.194,0.98 2.194,2.18 0,1.202 -0.985,2.184 -2.194,2.184 -1.209,0 -2.194,-0.982 -2.194,-2.184 0,-1.2 0.985,-2.18 2.194,-2.18"
           style="fill:#ffffff;fill-opacity:1;fill-rule:evenodd;stroke:none"
           id="path55844"
           inkscape:connector-curvature="0" /><path
           d="m 65.07,313.797 c 1.661,0 3.017,1.347 3.017,3 0,1.652 -1.356,2.998 -3.017,2.998 -1.661,0 -3.017,-1.346 -3.017,-2.998 0,-1.653 1.356,-3 3.017,-3"
           style="fill:#ffffff;fill-opacity:1;fill-rule:evenodd;stroke:none"
           id="path55846"
           inkscape:connector-curvature="0" /><path
           d="m 71.378,291.979 c 0.604,0 1.097,0.49 1.097,1.09 0,0.6 -0.493,1.091 -1.097,1.091 -0.605,0 -1.097,-0.491 -1.097,-1.091 0,-0.6 0.492,-1.09 1.097,-1.09"
           style="fill:#ffffff;fill-opacity:1;fill-rule:evenodd;stroke:none"
           id="path55848"
           inkscape:connector-curvature="0" /><path
           d="m 43.951,286.524 c 1.209,0 2.194,0.981 2.194,2.181 0,1.202 -0.985,2.185 -2.194,2.185 -1.209,0 -2.195,-0.983 -2.195,-2.185 0,-1.2 0.986,-2.181 2.195,-2.181"
           style="fill:#ffffff;fill-opacity:1;fill-rule:evenodd;stroke:none"
           id="path55850"
           inkscape:connector-curvature="0" /><path
           d="m 39.563,335.616 c 1.057,0 1.919,0.857 1.919,1.908 0,1.052 -0.862,1.909 -1.919,1.909 -1.057,0 -1.919,-0.857 -1.919,-1.909 0,-1.051 0.862,-1.908 1.919,-1.908"
           style="fill:#ffffff;fill-opacity:1;fill-rule:evenodd;stroke:none"
           id="path55852"
           inkscape:connector-curvature="0" /><path
           d="m 73.435,321.706 c 1.586,0 2.88,1.285 2.88,2.864 0,1.576 -1.294,2.864 -2.88,2.864 -1.586,0 -2.879,-1.288 -2.879,-2.864 0,-1.579 1.293,-2.864 2.879,-2.864"
           style="fill:#ffffff;fill-opacity:1;fill-rule:evenodd;stroke:none"
           id="path55854"
           inkscape:connector-curvature="0" /><path
           d="m 84.13,365.889 c 1.286,0 2.332,1.041 2.332,2.318 0,1.276 -1.046,2.316 -2.332,2.316 -1.281,0 -2.33,-1.04 -2.33,-2.316 0,-1.277 1.049,-2.318 2.33,-2.318"
           style="fill:#ffffff;fill-opacity:1;fill-rule:evenodd;stroke:none"
           id="path55856"
           inkscape:connector-curvature="0" /></g></g></g></svg>